<svg width="48" height="48" viewBox="0 0 48 48" fill="none" xmlns="http://www.w3.org/2000/svg">
<path d="M15.6575 41.3703C20.0755 43.6367 25.1578 44.2506 29.9884 43.1013C34.819 41.9521 39.0803 39.1153 42.0044 35.1022C44.9285 31.0891 46.3231 26.1635 45.9369 21.2132C45.5507 16.2628 43.4091 11.6131 39.898 8.10202C36.3869 4.59093 31.7372 2.44933 26.7868 2.06314C21.8365 1.67694 16.9109 3.07155 12.8978 5.99565C8.8847 8.91974 6.04793 13.181 4.89869 18.0116C3.74944 22.8422 4.36331 27.9245 6.62966 32.3425L2 46L15.6575 41.3703Z" fill="#2871EE"/>
<path d="M15.889 22.8517H15.9121H15.889Z" fill="#2871EE"/>
<path d="M25.1483 22.8517H25.1715H25.1483Z" fill="#2871EE"/>
<path d="M34.4076 22.8517H34.4308H34.4076Z" fill="#2871EE"/>
<circle cx="17.4" cy="22.7076" r="2.4" fill="#F5F5F5"/>
<circle cx="25.7999" cy="22.7076" r="2.4" fill="#F5F5F5"/>
<circle cx="34.1998" cy="22.7076" r="2.4" fill="#F5F5F5"/>
</svg>
