<svg width="480" height="315" viewBox="0 0 480 315" fill="none" xmlns="http://www.w3.org/2000/svg">
<path d="M255.356 -45C408.738 -26.2383 477.793 38.9451 469.304 107.895C464.047 150.593 428.782 184.539 367.195 199.857L388.305 287L296.414 208.611C274.408 209.085 250.447 207.849 224.613 204.689C75.148 186.406 2.17483 120.744 10.6642 51.794C18.8247 -14.4845 108.087 -79.5901 283.066 3.38214M378.464 87.1935C378.464 87.1935 366.95 136.558 342.272 140.064C310.131 144.632 308.3 63.9314 308.3 63.9314C308.3 63.9314 284.267 133.383 250.832 128.88C215.217 124.083 219.109 42.1302 219.109 42.1302C219.109 42.1302 190.864 129.921 149.711 123.614C110.461 117.598 103.423 32.7148 103.423 32.7148" stroke="#2871EE" stroke-width="20"/>
</svg>
