<svg width="201" height="270" viewBox="0 0 201 270" fill="none" xmlns="http://www.w3.org/2000/svg">
<g clip-path="url(#clip0_0_363)">
<path d="M118.282 237.628C80.9967 222.267 39.0625 301.286 18.2618 270.741C-6.85147 233.863 100.58 237.418 101.986 192.792C103.492 145 -10.2785 150.935 11.365 110.595C32.6962 70.8376 84.4446 164.835 122.722 140.951C165.962 113.97 77.5278 20.6999 127.463 10.5912C178.174 0.325311 124.961 117.084 173.567 134.713C220.368 151.686 255.569 37.7007 287.01 76.2876C314.798 110.391 194.518 132.511 200.458 187.039C206.268 240.362 329.856 229.242 304.52 276.562C279.102 324.038 215.614 205.471 172.387 237.592C138.354 262.881 193.996 336.201 151.964 341.616C107.224 347.381 159.965 254.801 118.282 237.628Z" stroke="white" stroke-width="20"/>
</g>
<defs>
<clipPath id="clip0_0_363">
<path d="M0 0H201V238C201 255.673 186.673 270 169 270H0V0Z" fill="white"/>
</clipPath>
</defs>
</svg>
