<svg width="180" height="56" viewBox="0 0 180 56" fill="none" xmlns="http://www.w3.org/2000/svg">
<path d="M24.7649 11.8893L21.609 16.0939C20.9282 15.2132 20.1709 14.542 19.3344 14.0856C18.4979 13.6291 17.5717 13.4009 16.5479 13.4009C15.1863 13.4009 14.1334 13.7473 13.392 14.44C12.6505 15.1327 12.2784 16.016 12.2784 17.0846C12.2784 17.525 12.3549 17.9196 12.5106 18.266C12.6663 18.6124 12.9117 18.9265 13.2521 19.2111C13.5608 19.5252 13.9566 19.8018 14.4369 20.0381C14.9171 20.2743 15.7589 20.5965 16.9675 21.0073C18.7935 21.7 20.1392 22.2746 21.0074 22.731C21.8729 23.1875 22.617 23.6681 23.2345 24.1729C24.1 24.9918 24.7597 25.961 25.2083 27.0779C25.6568 28.1949 25.8811 29.4326 25.8811 30.7858C25.8811 33.8735 24.8837 36.3678 22.8862 38.2714C20.8913 40.1777 18.2974 41.1282 15.1098 41.1282C13.0041 41.1282 11.0329 40.6395 9.19107 39.6649C7.34922 38.6903 5.76334 37.1921 4.43341 35.1784L8.37833 31.3524C8.9958 32.6438 9.8877 33.6748 11.0487 34.4454C12.2098 35.2187 13.4869 35.5865 14.8776 35.557C16.2392 35.5892 17.3685 35.2026 18.2657 34.3998C19.1629 33.597 19.6273 32.5337 19.659 31.2101C19.659 30.6758 19.5587 30.171 19.3582 29.6984C19.1576 29.2259 18.8542 28.7856 18.4531 28.3748C18.081 28.0284 17.6087 27.7062 17.0361 27.4055C16.4635 27.1075 15.342 26.6591 13.669 26.0604C12.3681 25.62 11.3258 25.1851 10.5342 24.7609C9.7452 24.3366 9.07232 23.856 8.51555 23.319C7.65004 22.5941 7.02202 21.7376 6.63412 20.7442C6.24623 19.7535 6.0536 18.658 6.0536 17.4605C6.0536 14.6252 6.97452 12.3753 8.81637 10.7052C10.6582 9.03521 13.0489 8.20288 15.9885 8.20288C17.7538 8.2351 19.3687 8.55729 20.8411 9.17214C22.3109 9.78699 23.6197 10.6918 24.7649 11.8893Z" fill="#2871EE"/>
<path d="M30.3353 5.04004H35.9981V27.4512L43.5159 19.9683H50.8542L41.4313 28.944L51.5983 40.4221H44.099L36.6076 31.6826L35.9981 32.2491V40.4221H30.3353V5.04004Z" fill="#2871EE"/>
<path d="M53.5457 11.3227C53.5457 10.3776 53.8703 9.56675 54.5194 8.89015C55.1685 8.21355 55.9734 7.87524 56.9339 7.87524C57.8944 7.87524 58.6596 8.21355 59.3246 8.89015C59.9895 9.56675 60.322 10.3776 60.322 11.3227C60.322 12.2678 59.9895 13.1189 59.3246 13.7794C58.6596 14.4399 57.8627 14.7701 56.9339 14.7701C56.005 14.7701 55.1685 14.4399 54.5194 13.7794C53.8703 13.1189 53.5457 12.3 53.5457 11.3227ZM54.1025 19.9655H59.7652V40.4193H54.1025V19.9655Z" fill="#2871EE"/>
<path d="M65.1509 5.04004H70.8137V40.4194H65.1509V5.04004Z" fill="#2871EE"/>
<path d="M76.1994 5.04004H81.8621V40.4194H76.1994V5.04004Z" fill="#2871EE"/>
<path d="M100.99 21.477L98.2039 24.8305C97.7078 24.3902 97.1748 24.0519 96.6021 23.8156C96.0295 23.5793 95.4649 23.4612 94.9081 23.4612C94.2273 23.4612 93.6943 23.6116 93.3064 23.9096C92.9185 24.2103 92.7258 24.6104 92.7258 25.1151C92.6942 25.5555 92.8419 25.934 93.1665 26.2482C93.4911 26.5623 93.9476 26.7986 94.536 26.957L95.8818 27.3812C97.2434 27.8215 98.3253 28.278 99.1301 28.7505C99.9349 29.2231 100.552 29.7413 100.988 30.3105C101.296 30.7508 101.545 31.2717 101.732 31.8704C101.917 32.4692 102.009 33.084 102.009 33.7123C101.977 34.8158 101.769 35.7985 101.381 36.6657C100.993 37.5329 100.46 38.2793 99.7792 38.9103C98.9744 39.6675 98.0772 40.2098 97.0877 40.5401C96.0955 40.8703 94.982 41.0502 93.7444 41.0824C92.2271 41.0824 90.8048 40.8059 89.4749 40.2555C88.145 39.705 86.9681 38.8459 85.9469 37.6806L88.9181 34.1848C89.4749 34.8775 90.1478 35.4441 90.9368 35.8844C91.7257 36.3247 92.5385 36.5449 93.375 36.5449C94.2115 36.5449 94.8448 36.3489 95.3725 35.9542C95.8976 35.5622 96.1615 35.0172 96.1615 34.3244C96.1298 33.8841 95.9768 33.4894 95.6971 33.1431C95.42 32.7967 94.9846 32.4987 94.3962 32.2463L93.0979 31.7738C91.9527 31.3656 91.0555 30.971 90.4037 30.5924C89.7546 30.2138 89.211 29.7896 88.7783 29.317C88.2822 28.815 87.8969 28.2377 87.6172 27.5933C87.3375 26.9489 87.2135 26.2159 87.2452 25.397C87.2452 24.4519 87.4299 23.5793 87.8019 22.7765C88.174 21.9738 88.6833 21.3052 89.335 20.7682C89.8918 20.2957 90.5884 19.9332 91.4249 19.6808C92.2614 19.4284 93.3116 19.3022 94.5809 19.3022C95.8501 19.3022 97.0032 19.4902 98.0403 19.8688C99.0773 20.2473 100.059 20.7816 100.988 21.4744L100.99 21.477Z" fill="#2871EE"/>
<path d="M156.164 40.7146V20.2608H161.827V22.9055C162.539 21.8986 163.42 21.0958 164.473 20.4971C165.526 19.8984 166.716 19.6003 168.049 19.6003C169.226 19.6003 170.339 19.8205 171.392 20.2608C172.445 20.7012 173.311 21.316 173.991 22.1027C174.485 22.7632 174.865 23.5284 175.129 24.3929C175.392 25.2602 175.538 26.4174 175.569 27.8646V40.712H169.907V29.5641C169.907 28.5573 169.814 27.7384 169.627 27.1074C169.442 26.4791 169.178 25.9583 168.838 25.5475C168.497 25.2333 168.102 24.9809 167.653 24.793C167.204 24.6051 166.716 24.5084 166.191 24.5084C165.418 24.5084 164.737 24.6588 164.149 24.9568C163.56 25.2575 163.08 25.7059 162.711 26.3019C162.37 26.8067 162.138 27.3491 162.014 27.9317C161.89 28.5143 161.829 29.2929 161.829 30.2703V40.7093H156.167L156.164 40.7146Z" fill="#2871EE"/>
<path d="M143.361 19.5063H115.065C109.819 19.5063 105.566 23.8339 105.566 29.1721V31.0972C105.566 36.4354 109.819 40.7629 115.065 40.7629H143.361C148.607 40.7629 152.86 36.4354 152.86 31.0972V29.1721C152.86 23.8339 148.607 19.5063 143.361 19.5063Z" fill="#4ECC5D"/>
<g filter="url(#filter0_d_6_270)">
<path d="M142.413 39.5816C147.542 39.5816 151.699 35.3515 151.699 30.1333C151.699 24.9152 147.542 20.6851 142.413 20.6851C137.285 20.6851 133.128 24.9152 133.128 30.1333C133.128 35.3515 137.285 39.5816 142.413 39.5816Z" fill="white"/>
</g>
<defs>
<filter id="filter0_d_6_270" x="127.589" y="16.2543" width="29.6484" height="29.9734" filterUnits="userSpaceOnUse" color-interpolation-filters="sRGB">
<feFlood flood-opacity="0" result="BackgroundImageFix"/>
<feColorMatrix in="SourceAlpha" type="matrix" values="0 0 0 0 0 0 0 0 0 0 0 0 0 0 0 0 0 0 127 0" result="hardAlpha"/>
<feOffset dy="1.10769"/>
<feGaussianBlur stdDeviation="2.76923"/>
<feColorMatrix type="matrix" values="0 0 0 0 0 0 0 0 0 0 0 0 0 0 0 0 0 0 0.51 0"/>
<feBlend mode="normal" in2="BackgroundImageFix" result="effect1_dropShadow_6_270"/>
<feBlend mode="normal" in="SourceGraphic" in2="effect1_dropShadow_6_270" result="shape"/>
</filter>
</defs>
</svg>
