<svg width="180" height="56" viewBox="0 0 180 56" fill="none" xmlns="http://www.w3.org/2000/svg">
<path d="M24.765 11.8892L21.6091 16.0938C20.9283 15.2132 20.171 14.542 19.3345 14.0855C18.498 13.6291 17.5718 13.4009 16.548 13.4009C15.1864 13.4009 14.1335 13.7472 13.392 14.4399C12.6505 15.1326 12.2785 16.016 12.2785 17.0846C12.2785 17.5249 12.355 17.9196 12.5107 18.266C12.6664 18.6123 12.9118 18.9264 13.2522 19.2111C13.5609 19.5252 13.9567 19.8017 14.437 20.038C14.9172 20.2743 15.759 20.5965 16.9675 21.0073C18.7935 21.7 20.1393 22.2746 21.0074 22.731C21.8729 23.1874 22.6171 23.668 23.2345 24.1728C24.1 24.9917 24.7597 25.961 25.2083 27.0779C25.6569 28.1948 25.8812 29.4326 25.8812 30.7858C25.8812 33.8735 24.8837 36.3678 22.8862 38.2714C20.8913 40.1777 18.2974 41.1281 15.1098 41.1281C13.0041 41.1281 11.033 40.6395 9.19113 39.6649C7.34929 38.6902 5.7634 37.192 4.43347 35.1783L8.3784 31.3523C8.99586 32.6438 9.88776 33.6748 11.0488 34.4454C12.2099 35.2186 13.487 35.5864 14.8776 35.5569C16.2392 35.5891 17.3686 35.2025 18.2658 34.3997C19.163 33.5969 19.6274 32.5337 19.659 31.21C19.659 30.6757 19.5588 30.1709 19.3582 29.6984C19.1577 29.2258 18.8542 28.7855 18.4531 28.3747C18.0811 28.0284 17.6087 27.7062 17.0361 27.4055C16.4635 27.1074 15.342 26.659 13.6691 26.0603C12.3682 25.62 11.3259 25.185 10.5343 24.7608C9.74527 24.3366 9.07239 23.856 8.51561 23.319C7.6501 22.5941 7.02208 21.7376 6.63419 20.7441C6.24629 19.7534 6.05366 18.658 6.05366 17.4605C6.05366 14.6252 6.97459 12.3752 8.81643 10.7052C10.6583 9.03516 13.049 8.20283 15.9885 8.20283C17.7539 8.23505 19.3688 8.55724 20.8412 9.17209C22.311 9.78694 23.6198 10.6918 24.765 11.8892Z" fill="#2871EE"/>
<path d="M30.3354 5.03999H35.9981V27.4511L43.5159 19.9682H50.8543L41.4313 28.9439L51.5984 40.422H44.0991L36.6077 31.6826L35.9981 32.2491V40.422H30.3354V5.03999Z" fill="#2871EE"/>
<path d="M53.5457 11.3227C53.5457 10.3776 53.8702 9.56678 54.5194 8.89017C55.1685 8.21357 55.9733 7.87527 56.9338 7.87527C57.8943 7.87527 58.6596 8.21357 59.3245 8.89017C59.9895 9.56678 60.322 10.3776 60.322 11.3227C60.322 12.2678 59.9895 13.1189 59.3245 13.7794C58.6596 14.4399 57.8627 14.7702 56.9338 14.7702C56.005 14.7702 55.1685 14.4399 54.5194 13.7794C53.8702 13.1189 53.5457 12.3 53.5457 11.3227ZM54.1025 19.9655H59.7652V40.4193H54.1025V19.9655Z" fill="#2871EE"/>
<path d="M65.1509 5.03999H70.8136V40.4193H65.1509V5.03999Z" fill="#2871EE"/>
<path d="M76.1994 5.03999H81.8622V40.4193H76.1994V5.03999Z" fill="#2871EE"/>
<path d="M100.99 21.4771L98.2039 24.8306C97.7078 24.3903 97.1748 24.052 96.6021 23.8157C96.0295 23.5794 95.4648 23.4613 94.9081 23.4613C94.2273 23.4613 93.6942 23.6117 93.3064 23.9097C92.9185 24.2104 92.7258 24.6104 92.7258 25.1152C92.6942 25.5555 92.8419 25.9341 93.1665 26.2483C93.4911 26.5624 93.9476 26.7987 94.536 26.9571L95.8818 27.3813C97.2434 27.8216 98.3252 28.2781 99.1301 28.7506C99.9349 29.2232 100.552 29.7414 100.988 30.3106C101.296 30.7509 101.545 31.2718 101.732 31.8705C101.917 32.4692 102.009 33.0841 102.009 33.7124C101.977 34.8159 101.769 35.7986 101.381 36.6658C100.993 37.533 100.46 38.2794 99.7792 38.9104C98.9744 39.6675 98.0772 40.2099 97.0877 40.5401C96.0955 40.8704 94.982 41.0503 93.7444 41.0825C92.2271 41.0825 90.8048 40.806 89.4749 40.2555C88.145 39.7051 86.9681 38.846 85.9469 37.6807L88.9181 34.1849C89.4749 34.8776 90.1478 35.4441 90.9368 35.8845C91.7257 36.3248 92.5385 36.545 93.375 36.545C94.2114 36.545 94.8447 36.349 95.3725 35.9543C95.8976 35.5623 96.1615 35.0172 96.1615 34.3245C96.1298 33.8842 95.9768 33.4895 95.6971 33.1432C95.42 32.7968 94.9846 32.4988 94.3962 32.2464L93.0979 31.7738C91.9527 31.3657 91.0555 30.9711 90.4037 30.5925C89.7546 30.2139 89.211 29.7897 88.7783 29.3171C88.2822 28.8151 87.8969 28.2378 87.6172 27.5934C87.3375 26.949 87.2135 26.216 87.2452 25.3971C87.2452 24.452 87.4299 23.5794 87.8019 22.7766C88.174 21.9738 88.6833 21.3053 89.335 20.7683C89.8918 20.2958 90.5884 19.9333 91.4249 19.6809C92.2614 19.4285 93.3116 19.3023 94.5809 19.3023C95.8501 19.3023 97.0032 19.4903 98.0403 19.8689C99.0773 20.2474 100.059 20.7817 100.988 21.4744L100.99 21.4771Z" fill="#2871EE"/>
<path d="M156.164 40.7147V20.2609H161.827V22.9055C162.539 21.8987 163.42 21.0959 164.473 20.4972C165.526 19.8984 166.716 19.6004 168.049 19.6004C169.226 19.6004 170.339 19.8206 171.392 20.2609C172.445 20.7012 173.311 21.3161 173.991 22.1027C174.485 22.7632 174.865 23.5284 175.129 24.393C175.392 25.2602 175.538 26.4174 175.569 27.8646V40.712H169.907V29.5642C169.907 28.5573 169.814 27.7384 169.627 27.1075C169.442 26.4792 169.178 25.9583 168.838 25.5475C168.497 25.2334 168.102 24.981 167.653 24.793C167.204 24.6051 166.716 24.5084 166.191 24.5084C165.418 24.5084 164.737 24.6588 164.149 24.9568C163.56 25.2575 163.08 25.7059 162.711 26.302C162.37 26.8067 162.138 27.3491 162.014 27.9317C161.89 28.5144 161.829 29.293 161.829 30.2703V40.7093H156.167L156.164 40.7147Z" fill="#2871EE"/>
<path d="M143.361 19.5064H115.065C109.819 19.5064 105.566 23.8339 105.566 29.1722V31.0973C105.566 36.4355 109.819 40.763 115.065 40.763H143.361C148.607 40.763 152.86 36.4355 152.86 31.0973V29.1722C152.86 23.8339 148.607 19.5064 143.361 19.5064Z" fill="#4ECC5D"/>
<g filter="url(#filter0_d_2159_519)">
<path d="M142.413 39.5816C147.542 39.5816 151.699 35.3515 151.699 30.1334C151.699 24.9152 147.542 20.6851 142.413 20.6851C137.285 20.6851 133.128 24.9152 133.128 30.1334C133.128 35.3515 137.285 39.5816 142.413 39.5816Z" fill="white"/>
</g>
<defs>
<filter id="filter0_d_2159_519" x="127.589" y="16.2543" width="29.6484" height="29.9735" filterUnits="userSpaceOnUse" color-interpolation-filters="sRGB">
<feFlood flood-opacity="0" result="BackgroundImageFix"/>
<feColorMatrix in="SourceAlpha" type="matrix" values="0 0 0 0 0 0 0 0 0 0 0 0 0 0 0 0 0 0 127 0" result="hardAlpha"/>
<feOffset dy="1.10769"/>
<feGaussianBlur stdDeviation="2.76923"/>
<feColorMatrix type="matrix" values="0 0 0 0 0 0 0 0 0 0 0 0 0 0 0 0 0 0 0.51 0"/>
<feBlend mode="normal" in2="BackgroundImageFix" result="effect1_dropShadow_2159_519"/>
<feBlend mode="normal" in="SourceGraphic" in2="effect1_dropShadow_2159_519" result="shape"/>
</filter>
</defs>
</svg>
